<svg xmlns="http://www.w3.org/2000/svg" xmlns:xlink="http://www.w3.org/1999/xlink" width="200" zoomAndPan="magnify" viewBox="0 0 150 67.499998" height="90" preserveAspectRatio="xMidYMid meet" version="1.0"><defs><clipPath id="55673facca"><path d="M 62 55 L 70 55 L 70 64.097656 L 62 64.097656 Z M 62 55 " clip-rule="nonzero"/></clipPath><clipPath id="4c4eb98dfa"><path d="M 73 55 L 81 55 L 81 64.097656 L 73 64.097656 Z M 73 55 " clip-rule="nonzero"/></clipPath><clipPath id="534e73431a"><path d="M 85 55 L 92 55 L 92 64.097656 L 85 64.097656 Z M 85 55 " clip-rule="nonzero"/></clipPath><clipPath id="7adb221a4c"><path d="M 96 55 L 105 55 L 105 64.097656 L 96 64.097656 Z M 96 55 " clip-rule="nonzero"/></clipPath><clipPath id="b42c001085"><path d="M 109 55 L 117 55 L 117 64.097656 L 109 64.097656 Z M 109 55 " clip-rule="nonzero"/></clipPath><clipPath id="707469c408"><path d="M 121 55 L 123 55 L 123 64.097656 L 121 64.097656 Z M 121 55 " clip-rule="nonzero"/></clipPath><clipPath id="c5aa848336"><path d="M 127 55 L 135 55 L 135 64.097656 L 127 64.097656 Z M 127 55 " clip-rule="nonzero"/></clipPath><clipPath id="b815c67a80"><path d="M 139 55 L 145.726562 55 L 145.726562 64.097656 L 139 64.097656 Z M 139 55 " clip-rule="nonzero"/></clipPath><clipPath id="5ab7a38ed6"><path d="M 4.273438 34 L 20 34 L 20 53 L 4.273438 53 Z M 4.273438 34 " clip-rule="nonzero"/></clipPath></defs><path fill="#231f20" d="M 30.574219 57.039062 C 30.574219 56.234375 30.992188 55.980469 31.632812 55.980469 L 35.871094 55.980469 C 36.398438 55.980469 36.785156 56.132812 36.785156 56.707031 C 36.785156 57.28125 36.398438 57.433594 35.871094 57.433594 L 32.378906 57.433594 L 32.378906 59.152344 L 35.441406 59.152344 C 35.914062 59.152344 36.289062 59.285156 36.289062 59.847656 C 36.289062 60.40625 35.914062 60.539062 35.441406 60.539062 L 32.378906 60.539062 L 32.378906 62.457031 L 35.960938 62.457031 C 36.488281 62.457031 36.875 62.609375 36.875 63.183594 C 36.875 63.753906 36.488281 63.910156 35.960938 63.910156 L 31.632812 63.910156 C 30.992188 63.910156 30.574219 63.65625 30.574219 62.851562 Z M 30.574219 57.039062 " fill-opacity="1" fill-rule="nonzero"/><path fill="#231f20" d="M 41.542969 56.742188 C 41.542969 56.203125 41.894531 55.835938 42.445312 55.835938 C 42.996094 55.835938 43.347656 56.203125 43.347656 56.742188 L 43.347656 62.390625 L 46.367188 62.390625 C 46.882812 62.390625 47.304688 62.65625 47.304688 63.152344 C 47.304688 63.648438 46.882812 63.914062 46.367188 63.914062 L 42.601562 63.914062 C 41.960938 63.914062 41.542969 63.660156 41.542969 62.855469 Z M 41.542969 56.742188 " fill-opacity="1" fill-rule="nonzero"/><path fill="#231f20" d="M 51.785156 57.039062 C 51.785156 56.234375 52.203125 55.980469 52.84375 55.980469 L 57.085938 55.980469 C 57.613281 55.980469 58 56.132812 58 56.707031 C 58 57.28125 57.613281 57.433594 57.085938 57.433594 L 53.59375 57.433594 L 53.59375 59.152344 L 56.65625 59.152344 C 57.128906 59.152344 57.503906 59.285156 57.503906 59.847656 C 57.503906 60.40625 57.128906 60.539062 56.65625 60.539062 L 53.59375 60.539062 L 53.59375 62.457031 L 57.171875 62.457031 C 57.699219 62.457031 58.085938 62.609375 58.085938 63.183594 C 58.085938 63.753906 57.699219 63.910156 57.171875 63.910156 L 52.84375 63.910156 C 52.203125 63.910156 51.785156 63.65625 51.785156 62.851562 Z M 51.785156 57.039062 " fill-opacity="1" fill-rule="nonzero"/><g clip-path="url(#55673facca)"><path fill="#231f20" d="M 66.378906 55.792969 C 68.449219 55.792969 69.585938 57.09375 69.585938 57.863281 C 69.585938 58.371094 69.308594 58.679688 68.769531 58.679688 C 67.722656 58.679688 68.03125 57.246094 66.378906 57.246094 C 65.246094 57.246094 64.308594 58.226562 64.308594 59.945312 C 64.308594 61.390625 64.882812 62.644531 66.445312 62.644531 C 67.867188 62.644531 67.835938 61.125 68.703125 61.125 C 69.144531 61.125 69.585938 61.378906 69.585938 61.820312 C 69.585938 62.964844 68.199219 64.097656 66.445312 64.097656 C 63.96875 64.097656 62.503906 62.679688 62.503906 59.945312 C 62.503906 57.710938 63.824219 55.792969 66.378906 55.792969 " fill-opacity="1" fill-rule="nonzero"/></g><g clip-path="url(#4c4eb98dfa)"><path fill="#231f20" d="M 76.117188 57.5 L 74.410156 57.5 C 73.890625 57.5 73.472656 57.234375 73.472656 56.738281 C 73.472656 56.246094 73.890625 55.980469 74.410156 55.980469 L 79.632812 55.980469 C 80.148438 55.980469 80.566406 56.246094 80.566406 56.738281 C 80.566406 57.234375 80.148438 57.5 79.632812 57.5 L 77.921875 57.5 L 77.921875 63.152344 C 77.921875 63.691406 77.570312 64.054688 77.019531 64.054688 C 76.46875 64.054688 76.117188 63.691406 76.117188 63.152344 Z M 76.117188 57.5 " fill-opacity="1" fill-rule="nonzero"/></g><g clip-path="url(#534e73431a)"><path fill="#231f20" d="M 86.8125 59.503906 L 88.617188 59.503906 C 89.300781 59.503906 89.980469 59.328125 89.980469 58.4375 C 89.980469 57.589844 89.464844 57.367188 88.671875 57.367188 L 86.8125 57.367188 Z M 85.003906 57.039062 C 85.003906 56.234375 85.421875 55.980469 86.0625 55.980469 L 89.066406 55.980469 C 91.214844 55.980469 91.789062 57.160156 91.789062 58.183594 C 91.789062 59.042969 91.28125 59.890625 90.421875 60.089844 L 90.421875 60.113281 C 91.347656 60.242188 91.515625 60.914062 91.515625 61.71875 C 91.515625 62.632812 91.757812 62.976562 91.757812 63.347656 C 91.757812 63.765625 91.328125 64.054688 90.90625 64.054688 C 89.917969 64.054688 89.839844 63.09375 89.839844 62.777344 C 89.839844 61.386719 89.585938 60.828125 88.59375 60.828125 L 86.8125 60.828125 L 86.8125 63.152344 C 86.8125 63.691406 86.457031 64.054688 85.90625 64.054688 C 85.355469 64.054688 85.003906 63.691406 85.003906 63.152344 Z M 85.003906 57.039062 " fill-opacity="1" fill-rule="nonzero"/></g><g clip-path="url(#7adb221a4c)"><path fill="#231f20" d="M 100.292969 62.644531 C 101.933594 62.644531 102.496094 61.367188 102.496094 59.847656 C 102.496094 58.328125 101.769531 57.246094 100.292969 57.246094 C 98.816406 57.246094 98.089844 58.328125 98.089844 59.847656 C 98.089844 61.367188 98.597656 62.644531 100.292969 62.644531 M 100.292969 55.792969 C 102.890625 55.792969 104.300781 57.523438 104.300781 59.847656 C 104.300781 62.082031 103.003906 64.097656 100.292969 64.097656 C 97.453125 64.097656 96.285156 62.25 96.285156 59.847656 C 96.285156 57.523438 97.691406 55.792969 100.292969 55.792969 " fill-opacity="1" fill-rule="nonzero"/></g><g clip-path="url(#b42c001085)"><path fill="#231f20" d="M 109.058594 56.894531 C 109.058594 56.148438 109.425781 55.835938 110.195312 55.835938 C 110.570312 55.835938 110.898438 55.980469 111.097656 56.3125 L 114.257812 61.410156 L 114.28125 61.410156 L 114.28125 56.707031 C 114.28125 56.125 114.613281 55.835938 115.152344 55.835938 C 115.691406 55.835938 116.023438 56.125 116.023438 56.707031 L 116.023438 62.929688 C 116.023438 63.648438 115.714844 64.054688 114.953125 64.054688 C 114.378906 64.054688 114.191406 63.933594 113.960938 63.570312 L 110.824219 58.613281 L 110.800781 58.613281 L 110.800781 63.183594 C 110.800781 63.765625 110.46875 64.054688 109.929688 64.054688 C 109.390625 64.054688 109.058594 63.765625 109.058594 63.183594 Z M 109.058594 56.894531 " fill-opacity="1" fill-rule="nonzero"/></g><g clip-path="url(#707469c408)"><path fill="#231f20" d="M 121.132812 56.742188 C 121.132812 56.203125 121.484375 55.835938 122.035156 55.835938 C 122.585938 55.835938 122.9375 56.203125 122.9375 56.742188 L 122.9375 63.152344 C 122.9375 63.691406 122.585938 64.054688 122.035156 64.054688 C 121.484375 64.054688 121.132812 63.691406 121.132812 63.152344 Z M 121.132812 56.742188 " fill-opacity="1" fill-rule="nonzero"/></g><g clip-path="url(#c5aa848336)"><path fill="#231f20" d="M 131.703125 55.792969 C 133.777344 55.792969 134.910156 57.09375 134.910156 57.863281 C 134.910156 58.371094 134.636719 58.679688 134.09375 58.679688 C 133.046875 58.679688 133.355469 57.246094 131.703125 57.246094 C 130.570312 57.246094 129.632812 58.226562 129.632812 59.945312 C 129.632812 61.390625 130.207031 62.644531 131.769531 62.644531 C 133.191406 62.644531 133.15625 61.125 134.027344 61.125 C 134.46875 61.125 134.910156 61.378906 134.910156 61.820312 C 134.910156 62.964844 133.523438 64.097656 131.769531 64.097656 C 129.292969 64.097656 127.828125 62.679688 127.828125 59.945312 C 127.828125 57.710938 129.148438 55.792969 131.703125 55.792969 " fill-opacity="1" fill-rule="nonzero"/></g><g clip-path="url(#b815c67a80)"><path fill="#231f20" d="M 143.65625 59.316406 C 145.308594 59.691406 145.726562 60.671875 145.726562 61.597656 C 145.726562 63.03125 144.644531 64.097656 142.464844 64.097656 C 140.175781 64.097656 139.152344 62.953125 139.152344 62.09375 C 139.152344 61.652344 139.46875 61.34375 139.910156 61.34375 C 140.890625 61.34375 140.636719 62.777344 142.464844 62.777344 C 143.402344 62.777344 143.917969 62.257812 143.917969 61.730469 C 143.917969 61.410156 143.765625 61.058594 143.148438 60.902344 L 141.109375 60.386719 C 139.46875 59.96875 139.171875 59.0625 139.171875 58.21875 C 139.171875 56.453125 140.800781 55.792969 142.332031 55.792969 C 143.742188 55.792969 145.40625 56.585938 145.40625 57.644531 C 145.40625 58.09375 145.019531 58.359375 144.578125 58.359375 C 143.742188 58.359375 143.898438 57.179688 142.210938 57.179688 C 141.375 57.179688 140.914062 57.566406 140.914062 58.117188 C 140.914062 58.667969 141.574219 58.84375 142.148438 58.976562 Z M 143.65625 59.316406 " fill-opacity="1" fill-rule="nonzero"/></g><g clip-path="url(#5ab7a38ed6)"><path fill="#231f20" d="M 8.503906 46.339844 C 8.503906 48.253906 10.199219 49.070312 11.921875 49.070312 C 13.175781 49.070312 14.839844 48.570312 14.839844 47.003906 C 14.839844 45.652344 12.957031 45.148438 9.792969 44.496094 C 7.1875 43.898438 4.648438 43.050781 4.648438 40.167969 C 4.648438 36.027344 8.222656 34.960938 11.703125 34.960938 C 15.214844 34.960938 18.507812 36.152344 18.855469 40.136719 L 14.621094 40.136719 C 14.492188 38.410156 13.175781 37.9375 11.578125 37.9375 C 10.574219 37.9375 9.097656 38.097656 9.097656 39.445312 C 9.097656 41.042969 11.640625 41.265625 14.152344 41.855469 C 16.75 42.453125 19.292969 43.394531 19.292969 46.40625 C 19.292969 50.671875 15.558594 52.046875 11.890625 52.046875 C 8.128906 52.046875 4.429688 50.640625 4.273438 46.339844 Z M 8.503906 46.339844 " fill-opacity="1" fill-rule="nonzero"/></g><path fill="#231f20" d="M 33.109375 43.550781 C 33.109375 40.949219 32.074219 38.316406 29.222656 38.316406 C 26.304688 38.316406 25.367188 40.921875 25.367188 43.550781 C 25.367188 46.183594 26.367188 48.691406 29.253906 48.691406 C 32.167969 48.691406 33.109375 46.183594 33.109375 43.550781 M 21.070312 36.15625 L 25.304688 35.398438 L 25.304688 37.46875 L 25.367188 37.46875 C 26.464844 35.710938 28.1875 34.960938 30.195312 34.960938 C 35.273438 34.960938 37.5625 39.070312 37.5625 43.675781 C 37.5625 48.003906 35.210938 52.046875 30.445312 52.046875 C 28.46875 52.046875 26.683594 51.203125 25.585938 49.605469 L 25.519531 49.605469 L 25.519531 61.277344 L 21.070312 57.316406 Z M 21.070312 36.15625 " fill-opacity="1" fill-rule="nonzero"/><path fill="#231f20" d="M 49.628906 43.675781 C 48.875 44.335938 47.308594 44.367188 45.929688 44.621094 C 44.550781 44.867188 43.292969 45.371094 43.292969 47 C 43.292969 48.632812 44.582031 49.070312 46.027344 49.070312 C 49.503906 49.070312 49.628906 46.339844 49.628906 45.339844 Z M 39.34375 40.386719 C 39.59375 36.246094 43.324219 34.960938 46.960938 34.960938 C 50.195312 34.960938 54.082031 35.679688 54.082031 39.566406 L 54.082031 48.003906 C 54.082031 49.476562 54.238281 50.953125 54.644531 51.609375 L 50.132812 51.609375 C 49.976562 51.109375 49.847656 50.574219 49.816406 50.042969 C 48.40625 51.515625 46.371094 52.046875 44.359375 52.046875 C 41.257812 52.046875 38.84375 50.511719 38.84375 47.1875 C 38.902344 39.820312 49.816406 43.769531 49.628906 40.136719 C 49.628906 38.253906 48.308594 37.9375 46.746094 37.9375 C 45.019531 37.9375 43.953125 38.628906 43.796875 40.386719 Z M 39.34375 40.386719 " fill-opacity="1" fill-rule="nonzero"/><path fill="#231f20" d="M 56.605469 36.15625 L 60.839844 35.398438 L 60.839844 38.410156 L 60.898438 38.410156 C 61.746094 36.371094 63.847656 34.960938 66.074219 34.960938 C 66.417969 34.960938 66.734375 35.027344 67.046875 35.117188 L 67.046875 39.253906 C 66.640625 39.164062 65.980469 39.097656 65.449219 39.097656 C 62.15625 39.097656 61.058594 41.417969 61.058594 44.304688 L 61.058594 51.609375 L 56.605469 51.609375 Z M 56.605469 36.15625 " fill-opacity="1" fill-rule="nonzero"/><path fill="#231f20" d="M 68.765625 31.664062 L 73.21875 29.222656 L 73.21875 41.234375 L 78.832031 35.398438 L 84.097656 35.398438 L 77.984375 41.359375 L 84.785156 51.609375 L 79.394531 51.609375 L 74.945312 44.367188 L 73.21875 46.03125 L 73.21875 51.609375 L 68.765625 51.609375 Z M 68.765625 31.664062 " fill-opacity="1" fill-rule="nonzero"/><path fill="#231f20" d="M 87.492188 38.375 L 83.101562 38.375 L 86.136719 35.398438 L 87.492188 35.398438 L 87.492188 34.148438 C 87.492188 31.261719 89.28125 29.222656 92.917969 29.222656 C 93.703125 29.222656 94.519531 29.316406 95.269531 29.347656 L 95.269531 32.671875 C 94.738281 32.609375 94.171875 32.578125 93.640625 32.578125 C 92.417969 32.578125 91.945312 33.078125 91.945312 34.429688 L 91.945312 35.398438 L 95.015625 35.398438 L 95.015625 38.375 L 91.945312 38.375 L 91.945312 51.609375 L 87.492188 51.609375 Z M 87.492188 38.375 " fill-opacity="1" fill-rule="nonzero"/><path fill="#231f20" d="M 111.476562 51.609375 L 107.242188 51.609375 L 107.242188 49.351562 L 107.148438 49.351562 C 106.019531 51.203125 104.074219 52.046875 102.191406 52.046875 C 97.460938 52.046875 96.269531 49.386719 96.269531 45.371094 L 96.269531 35.398438 L 100.722656 35.398438 L 100.722656 44.554688 C 100.722656 47.21875 101.476562 48.535156 103.574219 48.535156 C 105.988281 48.535156 107.023438 47.1875 107.023438 43.898438 L 107.023438 35.398438 L 111.476562 35.398438 Z M 111.476562 51.609375 " fill-opacity="1" fill-rule="nonzero"/><path fill="#231f20" d="M 113.933594 35.398438 L 118.167969 35.398438 L 118.167969 37.65625 L 118.261719 37.65625 C 119.390625 35.808594 121.332031 34.960938 123.214844 34.960938 C 127.949219 34.960938 129.140625 37.625 129.140625 41.636719 L 129.140625 51.609375 L 124.6875 51.609375 L 124.6875 42.453125 C 124.6875 39.789062 123.933594 38.472656 121.835938 38.472656 C 119.421875 38.472656 118.390625 39.820312 118.390625 43.113281 L 118.390625 51.609375 L 113.933594 51.609375 Z M 113.933594 35.398438 " fill-opacity="1" fill-rule="nonzero"/><path fill="#231f20" d="M 131.234375 49.324219 L 130.625 49.324219 C 130.441406 49.324219 130.289062 49.226562 130.289062 49.050781 C 130.289062 48.875 130.441406 48.777344 130.625 48.777344 L 132.488281 48.777344 C 132.675781 48.777344 132.824219 48.875 132.824219 49.050781 C 132.824219 49.226562 132.675781 49.324219 132.488281 49.324219 L 131.878906 49.324219 L 131.878906 51.339844 C 131.878906 51.535156 131.753906 51.664062 131.554688 51.664062 C 131.359375 51.664062 131.234375 51.535156 131.234375 51.339844 Z M 131.234375 49.324219 " fill-opacity="1" fill-rule="nonzero"/><path fill="#231f20" d="M 133.160156 49.046875 C 133.160156 48.789062 133.335938 48.726562 133.507812 48.726562 L 133.699219 48.726562 C 133.898438 48.726562 133.992188 48.804688 134.058594 49.023438 L 134.625 50.839844 L 134.632812 50.839844 L 135.1875 49.023438 C 135.253906 48.804688 135.347656 48.726562 135.550781 48.726562 L 135.730469 48.726562 C 135.902344 48.726562 136.078125 48.789062 136.078125 49.046875 L 136.078125 51.347656 C 136.078125 51.511719 136 51.664062 135.792969 51.664062 C 135.582031 51.664062 135.503906 51.511719 135.503906 51.347656 L 135.503906 49.59375 L 135.496094 49.59375 L 134.894531 51.476562 C 134.851562 51.609375 134.753906 51.664062 134.621094 51.664062 C 134.484375 51.664062 134.386719 51.609375 134.34375 51.476562 L 133.742188 49.59375 L 133.734375 49.59375 L 133.734375 51.347656 C 133.734375 51.511719 133.65625 51.664062 133.445312 51.664062 C 133.238281 51.664062 133.160156 51.511719 133.160156 51.347656 Z M 133.160156 49.046875 " fill-opacity="1" fill-rule="nonzero"/><path fill="#ee2922" d="M 93.804688 7.574219 C 93.804688 7.574219 94.21875 9.324219 92.898438 9.566406 C 91.980469 9.730469 90.5 8.820312 89.753906 7.910156 C 88.832031 6.789062 88.949219 5.90625 89.664062 5.125 C 90.738281 3.9375 92.578125 4.398438 92.578125 4.398438 C 92.578125 4.398438 89.207031 1.4375 85.699219 3.863281 C 82.570312 6.015625 83.46875 8.945312 86.289062 11.503906 C 88.832031 13.820312 86.804688 16.355469 84.238281 16.027344 C 82.484375 15.804688 81.769531 14.394531 82.1875 13.527344 C 82.554688 12.789062 83.8125 12.335938 83.8125 12.335938 C 83.8125 12.335938 82.363281 11.746094 80.660156 12.390625 C 79.128906 12.964844 77.867188 14.230469 77.96875 17.398438 L 77.96875 32.089844 C 77.96875 32.089844 79.550781 30.136719 81.410156 28.152344 C 83.492188 25.917969 84.445312 24.402344 86.582031 24.582031 C 90.628906 24.832031 93.554688 23.035156 95.542969 20.152344 C 99.363281 14.601562 96.371094 8.402344 93.804688 7.574219 " fill-opacity="1" fill-rule="nonzero"/></svg>