<svg width="213" height="79" xmlns="http://www.w3.org/2000/svg" viewBox="0 0 213 79"><title>University of Hawaiʻi at Hilo, Ke Kulanui o Hawaiʻi ma Hilo</title><defs><clipPath id="hilo-haw-wordmark-c-cp-a"><path d="M213 0v79H0V0h213Z"/></clipPath><clipPath id="hilo-haw-wordmark-c-cp-b"><path d="M102.149 0v1.073H0V0h102.149Z"/></clipPath><clipPath id="hilo-haw-wordmark-c-cp-c"><path d="m2.252.052.043.001C2.452.053 3.503 0 4.029 0c.193 0 .28.035.28.14 0 .07-.07.105-.14.105-.123 0-.228.018-.438.053-.473.07-.613.385-.648.998-.022.348-.03.67-.033 1.516l-.001.302v.168l-.001 4.25c0 2.522.56 3.609 1.314 4.327.858.806 1.646.964 2.645.964 1.068 0 2.119-.509 2.75-1.262.806-.998 1.016-2.487 1.016-4.292V3.282l-.001-.168v-.302c-.004-.753-.01-1.09-.027-1.4l-.007-.116c-.035-.595-.175-.876-.753-.998a3.28 3.28 0 0 0-.596-.053c-.07 0-.14-.035-.14-.105 0-.105.087-.14.28-.14.788 0 1.752.053 1.857.053.123 0 .946-.053 1.471-.053.193 0 .281.035.281.14 0 .07-.07.105-.14.105-.123 0-.228.018-.438.053-.473.105-.613.385-.648.998-.022.348-.03.67-.033 1.516l-.001.302v.168l-.001 3.672c0 1.892-.211 3.994-1.612 5.238-1.261 1.121-2.575 1.296-3.609 1.296-.595 0-2.364-.071-3.608-1.243-.859-.824-1.524-2.05-1.524-4.608V3.282l-.001-.168v-.302c-.004-.753-.01-1.09-.027-1.4l-.007-.116C1.454.701 1.313.42.736.298A3.28 3.28 0 0 0 .14.245C.07.245 0 .21 0 .14 0 .035.087 0 .28 0c.735 0 1.716.046 1.972.052Z"/></clipPath><clipPath id="hilo-haw-wordmark-c-cp-d"><path d="M1.401 0c.175 0 .438.297.595.454.246.245 2.488 2.628 4.87 5.08l.575.598.382.4c1.203 1.26 2.313 2.45 2.687 2.839l-.158-7.463C10.335.945 10.247.612 9.774.524c-.28-.052-.63-.07-.753-.07-.105 0-.123-.087-.123-.14 0-.087.123-.105.298-.105.701 0 1.437.036 1.612.036.175 0 .683-.036 1.313-.036.158 0 .281.018.281.105 0 .053-.07.14-.175.14-.07 0-.193 0-.368.035-.509.106-.543.404-.543 1.297l-.035 8.723v.31c-.005.69-.03.759-.123.759-.157 0-.315-.123-1.174-.911a94.351 94.351 0 0 1-1.379-1.356l-.627-.627a156.653 156.653 0 0 1-2.005-2.046C4.186 4.764 2.452 2.941 1.979 2.416l.175 7.024c.035 1.227.176 1.595.596 1.7.28.07.63.088.771.088.07 0 .122.052.122.122 0 .088-.105.123-.28.123-.876 0-1.489-.053-1.629-.053-.14 0-.788.053-1.489.053-.158 0-.245-.018-.245-.123 0-.07.052-.122.122-.122.123 0 .403-.018.631-.088.365-.1.432-.466.438-1.652V.752c0-.595.087-.752.21-.752Z"/></clipPath><clipPath id="hilo-haw-wordmark-c-cp-e"><path d="M1.804.036C1.873.036 2.872 0 3.345 0c.176 0 .245.036.245.123 0 .053-.069.122-.122.122-.105 0-.211 0-.386.035-.42.088-.508.298-.543.824l-.002.054-.003.11c-.007.244-.01.53-.011 1.103l-.001 1.68V7.821c.003 1.03.015 1.857.07 2.339.052.438.105.718.56.788.228.035.561.071.701.071.087 0 .123.07.123.122 0 .07-.07.123-.246.123h-.162l-.328-.005c-.655-.012-1.277-.043-1.412-.047l-.024-.001c-.088 0-1.051.053-1.524.053-.158 0-.246-.035-.246-.123 0-.052.035-.122.123-.122.14 0 .333-.036.473-.071.298-.07.35-.35.403-.788.065-.57.085-1.622.088-2.92V2.816l-.001-.16-.001-.284c-.003-.617-.01-.901-.026-1.158l-.007-.109C1.05.596.928.368.595.298A2.766 2.766 0 0 0 .122.245C.052.245 0 .176 0 .123 0 .036.069 0 .245 0c.508 0 1.471.036 1.559.036Z"/></clipPath><clipPath id="hilo-haw-wordmark-c-cp-f"><path d="m.575 0 .35.005c.582.01 1.134.031 1.282.031C2.365.036 3.048 0 3.644 0c.28 0 .42.036.42.105 0 .071-.053.14-.158.14-.175 0-.42.018-.56.07-.158.071-.176.159-.176.263 0 .193.193.649.421 1.244l2.908 7.497c.893-1.997 2.908-7.077 3.24-8.145.071-.228.14-.438.14-.561 0-.123-.052-.262-.21-.315-.175-.053-.35-.053-.525-.053-.088 0-.175-.052-.175-.122 0-.087.105-.123.35-.123.613 0 1.314.036 1.507.036.087 0 .753-.036 1.208-.036.158 0 .245.036.245.105 0 .071-.052.14-.175.14-.105 0-.455 0-.735.176-.211.14-.456.35-.859 1.366-.175.42-.928 2.207-1.717 4.028-.945 2.173-1.628 3.785-1.979 4.52-.42.894-.508 1.121-.666 1.121-.175 0-.28-.192-.578-.91L1.787 1.419C1.437.578 1.226.421.718.298.473.245.21.245.123.245.035.245 0 .158 0 .105 0 .018.158 0 .403 0h.172Z"/></clipPath><clipPath id="hilo-haw-wordmark-c-cp-g"><path d="M6.622 0c.052 0 .07.07.07.14 0 .105-.088.28-.123.701-.017.139-.052.805-.087.98-.018.071-.07.158-.14.158-.088 0-.123-.07-.123-.193 0-.104-.017-.35-.088-.525-.105-.245-.262-.351-1.103-.455-.23-.032-1.627-.048-2.09-.052L2.803.753c-.07 0-.087.053-.087.157v4.047c0 .105 0 .157.087.157h.558c.685-.003 1.77-.01 2.017-.034.368-.035.596-.053.753-.211.106-.104.176-.192.228-.192.053 0 .088.035.088.123 0 .087-.088.332-.123.823-.035.298-.07.858-.07.963 0 .123-.035.28-.14.28-.07 0-.105-.053-.105-.14 0-.14 0-.297-.07-.491-.053-.21-.193-.384-.789-.455-.42-.053-2.067-.07-2.329-.07-.088 0-.105.053-.105.105v1.244l-.005 1.028-.002.427v.59c0 .234.002.416.007.495.034.999.315 1.191 1.839 1.191.403 0 1.138 0 1.541-.157.403-.176.613-.439.701-1.034.035-.175.07-.228.158-.228.087 0 .105.123.105.228 0 .105-.123 1.121-.21 1.436-.105.386-.263.386-.859.386-1.156 0-2.049-.035-2.68-.053-.648-.035-1.051-.035-1.278-.035h-.139c-.125.003-.319.007-.527.018a17.82 17.82 0 0 1-.893.035c-.158 0-.246-.035-.246-.123 0-.052.035-.122.123-.122.14 0 .333-.053.473-.071.298-.052.333-.35.402-.788.07-.482.084-1.31.087-2.339l.001-.58V2.937l-.001-.16-.001-.284a17.286 17.286 0 0 0-.033-1.267C1.244.718 1.157.473.648.402A5.082 5.082 0 0 0 .123.367C.071.367 0 .298 0 .245 0 .158.071.122.246.122c.14 0 .292.001.446.004l.309.005c.51.011.973.027 1.032.027h.174C2.569.16 3.429.165 4.21.166h.792c.353 0 .62-.003.708-.007.298-.018.578-.071.701-.088.07-.018.14-.07.21-.07Z"/></clipPath><clipPath id="hilo-haw-wordmark-c-cp-h"><path d="m.695.004.315.005c.52.011.999.027 1.057.027C2.225.036 3.521 0 3.994 0c.981 0 2.067.088 2.873.648.385.281 1.068.998 1.068 2.033 0 1.103-.455 2.172-1.891 3.398 1.261 1.576 2.329 2.925 3.223 3.854.823.84 1.331.98 1.716 1.033.298.053.456.053.543.053.088 0 .141.07.141.122 0 .088-.088.123-.369.123h-.963c-.876 0-1.261-.088-1.647-.298-.665-.351-1.225-1.069-2.102-2.19-.647-.805-1.331-1.769-1.664-2.172-.07-.07-.105-.087-.21-.087L2.75 6.481c-.07 0-.105.036-.105.123v1.232c.003 1.025.015 1.842.07 2.324.053.438.141.718.613.788.211.035.543.071.683.071.106 0 .123.07.123.122 0 .07-.07.123-.245.123-.788 0-1.7-.047-1.868-.052l-.024-.001c-.017 0-1.051.053-1.524.053-.158 0-.245-.035-.245-.123 0-.052.035-.122.123-.122.139 0 .332-.036.472-.071.298-.07.333-.35.403-.788.07-.482.084-1.31.087-2.339V2.655l-.001-.284c-.003-.617-.01-.901-.026-1.158l-.007-.109C1.244.596 1.156.351.648.28A5.101 5.101 0 0 0 .123.245C.07.245 0 .176 0 .123 0 .036.07 0 .245 0c.14 0 .294.001.45.004Zm3.176.521a6.7 6.7 0 0 0-1.103.088c-.07.035-.123.088-.123.175V5.57c0 .088.035.141.105.194.228.122 1.016.227 1.699.227.368 0 .789-.017 1.157-.262.525-.351.928-1.139.928-2.278 0-1.856-1.016-2.926-2.663-2.926Z"/></clipPath><clipPath id="hilo-haw-wordmark-c-cp-i"><path d="M3.714 0c.613 0 1.226.087 1.594.175.298.07.421.07.543.07.123 0 .158.018.158.105 0 .023-.008.093-.018.214l-.014.17c-.018.258-.038.65-.038 1.192 0 .228-.018.333-.123.333s-.123-.07-.14-.192a2.755 2.755 0 0 0-.228-.736c-.105-.175-.613-.736-1.997-.736-1.121 0-2.05.561-2.05 1.611 0 .947.474 1.49 1.998 2.523l.438.298c1.874 1.279 2.522 2.312 2.522 3.591 0 .876-.333 1.822-1.437 2.54-.648.421-1.611.525-2.452.525-.718 0-1.612-.104-2.242-.402-.21-.106-.228-.158-.228-.561 0-.736.07-1.331.088-1.577 0-.157.035-.245.122-.245.088 0 .141.053.141.176 0 .122 0 .332.052.543.245 1.086 1.402 1.47 2.435 1.47 1.524 0 2.312-.857 2.312-1.978 0-1.069-.578-1.577-1.944-2.593l-.701-.525C.841 4.747.298 3.835.298 2.802.298 1.05 1.682 0 3.714 0Z"/></clipPath><clipPath id="hilo-haw-wordmark-c-cp-j"><path d="M1.804.036C1.874.036 2.872 0 3.346 0c.174 0 .245.036.245.123 0 .053-.071.122-.123.122-.105 0-.21 0-.385.035-.42.088-.508.298-.543.824l-.006.165c-.005.206-.009.442-.01.857l-.001.245V7.82c.002 1.03.014 1.857.069 2.339.053.438.105.718.561.788.228.035.56.071.7.071.088 0 .123.07.123.122 0 .07-.07.123-.245.123h-.162l-.329-.005c-.655-.012-1.276-.043-1.412-.047l-.024-.001c-.088 0-1.051.053-1.524.053-.158 0-.246-.035-.246-.123 0-.052.036-.122.123-.122a2.2 2.2 0 0 0 .473-.071c.298-.07.351-.35.403-.788.065-.57.085-1.622.088-2.92V2.816l-.001-.16-.001-.284c-.003-.617-.01-.901-.026-1.158l-.007-.109C1.051.596.928.368.595.298A2.766 2.766 0 0 0 .122.245C.052.245 0 .176 0 .123 0 .036.07 0 .245 0c.508 0 1.471.036 1.559.036Z"/></clipPath><clipPath id="hilo-haw-wordmark-c-cp-k"><path d="M.491 0c.105 0 .263.122.683.174.438.053 1.033.071 1.209.071h5.816c.507 0 .858-.036 1.103-.071.228-.035.368-.069.438-.069s.07.087.07.175c0 .454-.052 1.524-.052 1.699 0 .122-.071.192-.14.192-.071 0-.106-.053-.123-.263l-.018-.157C9.425 1.295 9.092.963 7.62.928L5.694.893V8.03c.003 1.03.015 1.857.07 2.339.052.438.122.718.595.788.21.035.561.071.701.071.105 0 .123.07.123.122 0 .07-.07.123-.246.123-.784 0-1.69-.046-1.88-.052l-.029-.001c-.07 0-1.139.053-1.594.053-.175 0-.245-.035-.245-.123 0-.052.034-.105.122-.105.141 0 .315-.035.456-.07.315-.07.402-.368.455-.806.055-.482.067-1.31.07-2.339V.893L2.068.928C1.104.945.736 1.05.509 1.4c-.176.263-.193.369-.246.473-.035.123-.087.141-.157.141A.117.117 0 0 1 0 1.891C0 1.733.298.402.333.28.351.192.438 0 .491 0Z"/></clipPath><clipPath id="hilo-haw-wordmark-c-cp-l"><path d="M1.717.036C1.822.036 2.452 0 3.048 0c.175 0 .21.036.21.105 0 .053-.105.105-.245.158-.123.052-.193.123-.193.245 0 .211.105.386.21.578l2.803 4.643c.145-.29.628-1.116 1.136-1.974l.277-.467c.507-.853.981-1.644 1.11-1.869.192-.333.262-.578.262-.771 0-.21-.07-.333-.245-.385-.14-.035-.227-.105-.227-.175 0-.052.087-.088.245-.088.403 0 .946.036 1.068.036.106 0 1.209-.036 1.506-.036.106 0 .193.036.193.088 0 .07-.069.157-.193.157-.174 0-.472.053-.717.193-.298.175-.438.333-.771.736-.508.596-2.68 4.098-2.995 4.729-.175.35-.203.678-.201 1.002l.006.325.002.163v1.468c.002.307.01.809.052 1.299.035.438.141.718.596.788.21.035.56.071.701.071.087 0 .122.07.122.122 0 .07-.088.123-.245.123h-.162l-.329-.005c-.656-.012-1.279-.043-1.427-.047l-.027-.001c-.069 0-1.05.053-1.506.053-.175 0-.245-.035-.245-.123 0-.052.035-.122.123-.122.14 0 .315-.036.455-.071.315-.07.421-.35.455-.788.024-.43.032-.867.034-1.175l.001-.23V7.394c0-.806-.105-1.104-.332-1.525-.061-.114-.613-.998-1.216-1.953l-.26-.411c-.52-.823-1.032-1.624-1.257-1.962C1.454.981 1.086.648.806.456A1.51 1.51 0 0 0 .158.245C.07.245 0 .176 0 .105 0 .036.053 0 .193 0 .49 0 1.647.036 1.717.036Z"/></clipPath><clipPath id="hilo-haw-wordmark-c-cp-m"><path d="M4.643 0c2.382 0 3.714 1.401 3.714 3.609 0 2.557-1.822 5.325-4.888 5.273C1.227 8.899 0 7.357 0 5.466 0 2.225 2.138 0 4.643 0Zm.105.526c-2.435 0-3.346 3.276-3.346 5.22 0 1.489.648 2.628 2.259 2.61 2.348 0 3.294-3.363 3.294-5.22 0-1.349-.701-2.61-2.207-2.61Z"/></clipPath><clipPath id="hilo-haw-wordmark-c-cp-n"><path d="M6.568 0c.332 0 .63.263.612.771-.017.666-.35 1.033-.56 1.033-.332 0-.105-.56-.718-.56-1.033 0-1.156 1.926-1.576 4.397H6.55l-.106.612H4.22l-.771 4.222c-.23 1.261-.525 2.347-1.07 3.521C1.524 15.87.47 17.201.368 17.219c-.456-.263-.438-.333-.211-.63 1.034-1.121 1.489-2.575 1.734-4.047l1.086-6.289H1.225l.105-.612h1.752C3.678 2.137 5.412 0 6.568 0Z"/></clipPath><clipPath id="hilo-haw-wordmark-c-cp-o"><path d="m2.231.052.028.001C2.347.053 3.451 0 3.976 0c.193 0 .28.035.28.14 0 .07-.069.105-.139.105-.123 0-.228.018-.439.053-.472.087-.612.385-.647.998-.022.348-.03.67-.033 1.516l-.001.302v.168l-.001 2.166c0 .088.052.104.104.104h7.428c.053 0 .105-.016.105-.104V3.282l-.001-.168v-.302c-.004-.753-.01-1.09-.027-1.4l-.007-.116c-.035-.595-.176-.876-.754-.998A3.257 3.257 0 0 0 9.25.245c-.071 0-.141-.035-.141-.105 0-.105.088-.14.28-.14.739 0 1.755.047 1.952.052l.028.001C11.457.053 12.56 0 13.085 0c.193 0 .281.035.281.14 0 .07-.071.105-.141.105-.122 0-.227.018-.437.053-.473.087-.614.385-.649.998-.022.348-.03.67-.033 1.516l-.001.302v6.019c.003 1.239.017 2.242.087 2.831.053.508.157.893.683.963.246.035.63.071.789.071.104 0 .139.052.139.105 0 .087-.087.14-.28.14-.963 0-2.066-.053-2.154-.053-.088 0-1.192.053-1.717.053-.193 0-.28-.035-.28-.14 0-.053.035-.105.14-.105.157 0 .367-.036.526-.071.349-.07.437-.455.507-.963.07-.589.084-1.592.087-2.83l.001-.639V6.324c0-.071-.052-.106-.105-.106H3.1c-.052 0-.104.018-.104.106v2.81c.003 1.238.017 2.241.087 2.83.052.508.158.893.683.963.245.035.631.071.788.071.106 0 .141.052.141.105 0 .087-.088.14-.28.14h-.171l-.346-.004c-.805-.013-1.567-.049-1.639-.049-.087 0-1.19.053-1.716.053-.193 0-.28-.035-.28-.14 0-.053.034-.105.14-.105.158 0 .368-.036.525-.071.351-.07.439-.455.508-.963.07-.589.084-1.592.087-2.83l.001-.639V3.282l-.001-.168v-.302c-.004-.753-.01-1.09-.027-1.4l-.007-.116C1.454.701 1.314.42.736.298A3.295 3.295 0 0 0 .14.245C.07.245 0 .21 0 .14 0 .035.087 0 .281 0c.739 0 1.754.047 1.95.052Z"/></clipPath><clipPath id="hilo-haw-wordmark-c-cp-p"><path d="M5.886 0c.158 0 .211.21.368.543.281.631 2.75 6.779 3.697 9.039.56 1.331.98 1.524 1.313 1.629.228.07.456.088.613.088.088 0 .193.035.193.122 0 .088-.175.123-.35.123h-.326a76.344 76.344 0 0 1-2.109-.035c-.298-.018-.543-.018-.543-.105 0-.07.035-.07.105-.105.087-.036.245-.159.14-.404L7.603 7.48c-.035-.07-.053-.088-.14-.088H3.907c-.07 0-.122.035-.158.122l-.876 2.383c-.139.368-.227.736-.227.998 0 .298.263.404.525.404h.141c.122 0 .157.052.157.122 0 .088-.088.123-.227.123-.369 0-1.209-.053-1.384-.053-.158 0-.929.053-1.56.053-.192 0-.298-.035-.298-.123 0-.07.071-.122.141-.122.105 0 .333-.018.455-.036.701-.087.999-.613 1.297-1.366L5.519.578C5.711.088 5.782 0 5.886 0Zm-.385 2.593L4.065 6.674c-.018.07 0 .105.053.105h3.118c.069 0 .069-.035.052-.105L5.764 2.593c-.088-.228-.176-.228-.263 0Z"/></clipPath><clipPath id="hilo-haw-wordmark-c-cp-q"><path d="M2.067.036C2.207.036 2.908 0 3.679 0c.21 0 .28.036.28.105 0 .088-.087.14-.157.14-.123 0-.368 0-.543.088-.106.035-.211.123-.211.315 0 .193.123.718.298 1.384.246.947 1.822 6.411 2.014 7.025h.036L8.619.719c.228-.596.332-.683.42-.683.106 0 .228.192.421.7l3.013 8.321h.07c.385-1.227 1.769-5.536 2.312-7.446.158-.56.175-.735.175-.927 0-.263-.123-.439-.823-.439-.088 0-.141-.087-.141-.14 0-.069.071-.105.263-.105.788 0 1.437.036 1.577.036.105 0 .771-.036 1.243-.036.141 0 .21.036.21.088 0 .07-.034.157-.139.157-.053 0-.351.018-.526.07-.456.159-.701.753-.999 1.577-.682 1.892-2.207 6.622-2.82 8.286-.402 1.103-.49 1.278-.665 1.278-.158 0-.298-.192-.508-.77L8.689 2.522c-.526 1.297-2.61 6.762-3.17 8.146-.263.631-.369.788-.543.788-.159 0-.281-.157-.596-1.173L1.647 1.454C1.401.666 1.244.474.841.333.631.263.245.245.141.245A.138.138 0 0 1 0 .105C0 .036.106 0 .245 0c.807 0 1.665.036 1.822.036Z"/></clipPath><clipPath id="hilo-haw-wordmark-c-cp-r"><path d="M5.885 0c.158 0 .21.21.369.543.28.631 2.75 6.779 3.695 9.039.56 1.331.981 1.524 1.314 1.629.228.07.455.088.613.088.088 0 .193.035.193.122 0 .088-.176.123-.351.123h-.326a76.342 76.342 0 0 1-2.108-.035c-.298-.018-.543-.018-.543-.105 0-.07.035-.07.104-.105.088-.036.246-.159.141-.404L7.602 7.48c-.035-.07-.053-.088-.14-.088H3.906c-.07 0-.123.035-.158.122l-.875 2.383c-.141.368-.229.736-.229.998 0 .298.263.404.527.404h.139c.123 0 .157.052.157.122 0 .088-.086.123-.227.123-.367 0-1.208-.053-1.384-.053-.157 0-.928.053-1.558.053-.194 0-.298-.035-.298-.123 0-.07.07-.122.139-.122a4.2 4.2 0 0 0 .456-.036c.701-.087.998-.613 1.296-1.366L5.517.578C5.71.088 5.78 0 5.885 0ZM5.5 2.593 4.063 6.674c-.017.07 0 .105.053.105h3.118c.07 0 .07-.035.053-.105L5.762 2.593c-.087-.228-.174-.228-.262 0Z"/></clipPath><clipPath id="hilo-haw-wordmark-c-cp-s"><path d="M1.805.036C1.874.036 2.873 0 3.346 0c.174 0 .245.036.245.123 0 .053-.071.122-.122.122-.106 0-.211 0-.386.035-.42.088-.508.298-.543.824l-.006.165c-.005.206-.009.442-.01.857l-.001.245V7.82c.002 1.03.014 1.857.07 2.339.052.438.104.718.56.788.228.035.561.071.7.071a.12.12 0 0 1 .124.122c0 .07-.071.123-.246.123h-.162l-.328-.005c-.655-.012-1.277-.043-1.412-.047l-.024-.001c-.047 0-.349.015-.69.03l-.299.011c-.198.007-.39.012-.536.012-.157 0-.245-.035-.245-.123 0-.052.035-.122.122-.122.141 0 .333-.036.474-.071.298-.07.35-.35.402-.788.07-.613.088-1.787.088-3.223V2.815l-.001-.16-.001-.284a17.286 17.286 0 0 0-.033-1.267C1.051.596.929.368.596.298A2.766 2.766 0 0 0 .123.245C.053.245 0 .176 0 .123 0 .036.07 0 .245 0c.508 0 1.472.036 1.56.036Z"/></clipPath><clipPath id="hilo-haw-wordmark-c-cp-t"><path d="M1.735 0c.035 0 .088.035.088.088 0 .053-.018.105-.071.228-.262.56-.578 1.506-.578 2.504 0 .543.228.999.351 1.139.139.158.157.211.157.298 0 .052-.087.105-.157.105-.28 0-.946-.21-1.227-.315C.088 3.941 0 3.854 0 3.591 0 2.348.894.876 1.507.141 1.578.035 1.647 0 1.735 0Z"/></clipPath><clipPath id="hilo-haw-wordmark-c-cp-u"><path d="M1.803.036C1.874.036 2.872 0 3.345 0c.175 0 .246.036.246.123 0 .053-.071.122-.123.122-.105 0-.21 0-.385.035-.421.088-.509.298-.544.824l-.002.054-.003.11c-.007.244-.01.53-.011 1.103l-.001 1.68V7.821c.003 1.03.015 1.857.07 2.339.052.438.105.718.56.788.228.035.561.071.701.071.087 0 .122.07.122.122 0 .07-.069.123-.245.123h-.162l-.328-.005c-.655-.012-1.276-.043-1.413-.047l-.024-.001c-.087 0-1.05.053-1.523.053-.158 0-.246-.035-.246-.123 0-.052.035-.122.123-.122.14 0 .333-.036.473-.071.297-.07.35-.35.403-.788.065-.57.085-1.622.088-2.92V2.816l-.001-.16-.001-.284c-.003-.617-.01-.901-.026-1.158l-.007-.109C1.051.596.927.368.594.298A2.746 2.746 0 0 0 .122.245C.051.245 0 .176 0 .123 0 .036.069 0 .245 0c.508 0 1.471.036 1.558.036Z"/></clipPath><clipPath id="hilo-haw-wordmark-c-cp-v"><path d="M1.789 0c.981 0 1.763.79 1.763 1.804 0 1.031-.782 1.82-1.772 1.82-.983 0-1.78-.789-1.78-1.82C0 .79.797 0 1.78 0Zm0 .226C.958.226.298.934.298 1.804c0 .885.66 1.595 1.498 1.595.822.007 1.474-.71 1.474-1.587C3.27.934 2.618.226 1.789.226ZM1.691.79c.282 0 .476.064.596.152.121.089.185.226.185.411 0 .273-.185.435-.394.5v.016c.177.032.298.193.346.492.048.314.097.435.137.499h-.274c-.048-.064-.104-.25-.152-.517-.057-.273-.185-.378-.467-.378h-.243v.895h-.257V.838C1.345.813 1.49.79 1.691.79Zm-.032.209c-.104 0-.177.008-.234.017v.756h.25c.275 0 .524-.105.524-.378 0-.194-.128-.395-.54-.395Z"/></clipPath><clipPath id="hilo-haw-wordmark-c-cp-w"><path d="M5.312.096C6.085.096 8.113 0 9.369 0c.451 0 .676.064.676.289 0 .226-.193.29-.579.29a5.66 5.66 0 0 0-.934.097c-.869.161-1.127.708-1.191 1.835l-.009.147-.008.147c-.032.621-.042 1.335-.046 3.012v.421l-.001.226-.001 2.53V10.012c0 .161.097.225.194.225h12.298c.097 0 .193-.064.193-.225v-3.55l-.001-.225v-.421c-.005-1.677-.015-2.39-.046-3.012l-.008-.147-.009-.147c-.064-1.095-.322-1.61-1.384-1.835-.258-.065-.805-.097-1.256-.097-.354 0-.547-.064-.547-.29 0-.225.225-.289.676-.289 1.738 0 3.767.096 4.636.096.773 0 2.801-.096 4.057-.096.451 0 .676.064.676.289 0 .226-.194.29-.58.29a5.66 5.66 0 0 0-.933.097c-.87.161-1.127.708-1.192 1.835l-.009.147-.008.147c-.03.621-.041 1.335-.045 3.012v.421l-.001.226v10.109c.004 2.279.028 4.188.16 5.32.096.901.29 1.61 1.256 1.739.45.064 1.158.128 1.642.128.354 0 .515.097.515.258 0 .225-.258.322-.644.322-2.093 0-4.121-.097-5.023-.097-.74 0-2.769.097-4.025.097-.45 0-.675-.097-.675-.322 0-.161.128-.258.515-.258.483 0 .869-.064 1.159-.128.644-.129.805-.838.934-1.772.13-1.105.155-3.01.159-5.287l.001-4.403c0-.129-.096-.193-.193-.193H7.47c-.097 0-.194.032-.194.193v3.234l.001 1.169c.004 2.279.028 4.188.16 5.32.096.901.29 1.61 1.256 1.739.45.064 1.159.128 1.642.128.354 0 .515.097.515.258 0 .225-.257.322-.644.322-2.093 0-4.121-.097-5.023-.097-.74 0-2.769.097-4.056.097-.419 0-.644-.097-.644-.322 0-.161.129-.258.515-.258.483 0 .869-.064 1.159-.128.644-.129.805-.838.934-1.772.132-1.105.156-3.01.16-5.287V5.817c-.005-1.677-.015-2.39-.047-3.012l-.008-.147a25.827 25.827 0 0 0-.009-.147C3.123 1.416 2.865.901 1.803.676 1.545.611.998.579.547.579.193.579 0 .515 0 .289 0 .064.225 0 .676 0c1.738 0 3.767.096 4.636.096Z"/></clipPath><clipPath id="hilo-haw-wordmark-c-cp-x"><path d="m2.056.019.616.013c.716.016 1.4.032 1.803.032.378 0 1.076-.018 1.811-.035L6.84.017C7.3.007 7.748 0 8.113 0c.354 0 .58.064.58.225 0 .258-.161.322-.451.322-.29 0-.515.032-.837.096-.773.129-.999.516-1.062 1.482-.045.603-.059 1.16-.063 2.835l-.001.424v.23l-.001 1.968v6.323c.003 2.118.02 3.848.128 4.833.097.74.29 1.159 1.127 1.288.387.065 1.031.096 1.449.096.322 0 .451.161.451.29 0 .193-.225.29-.547.29-1.868 0-3.799-.097-4.572-.097-.644 0-2.576.097-3.702.097-.355 0-.548-.097-.548-.29 0-.129.097-.29.451-.29.418 0 .74-.031.998-.096.58-.129.74-.515.837-1.32.11-.958.126-2.684.129-4.8V4.96l-.001-.196v-.36a74.946 74.946 0 0 0-.022-1.988L2.45 2.27l-.005-.145C2.382 1.191 2.093.869 1.481.676A3.606 3.606 0 0 0 .451.547C.161.547 0 .483 0 .225 0 .064.225 0 .676 0c.38 0 .87.008 1.38.019Z"/></clipPath><clipPath id="hilo-haw-wordmark-c-cp-y"><path d="M4.507.064C5.183.064 7.501 0 8.596 0c.419 0 .611.064.611.258 0 .193-.16.289-.515.289-.322 0-.772.032-1.094.096-.773.129-.998.516-1.063 1.482-.044.603-.058 1.16-.062 2.835l-.001.424v8.366c.005 2.845.06 4.3.61 4.762.483.419 1.578.58 3.768.58 1.512 0 2.607-.033 3.316-.773.354-.353.644-1.127.708-1.642.032-.257.097-.418.322-.418.193 0 .257.29.257.612 0 .321-.192 2.349-.418 3.155-.193.611-.322.74-1.804.74-2.028 0-3.669-.032-5.086-.096-1.416-.033-2.608-.065-3.767-.065-.322 0-.934.032-1.609.032-.677.033-1.385.065-1.964.065-.355 0-.548-.097-.548-.29 0-.129.097-.29.451-.29.418 0 .74-.031.998-.096.579-.129.74-.644.837-1.449.109-.976.126-2.66.128-4.667V4.404a77.287 77.287 0 0 0-.021-1.988l-.005-.146a36.338 36.338 0 0 0-.005-.145C2.575 1.191 2.317.901 1.416.643 1.19.579.837.547.482.547.161.547 0 .451 0 .258 0 .064.193 0 .611 0c1.32 0 3.123.064 3.896.064Z"/></clipPath><clipPath id="hilo-haw-wordmark-c-cp-z"><path d="M11.88 0c7.148 0 11.59 3.961 11.59 10.238 0 6.279-4.571 11.205-11.88 11.205C3.348 21.443 0 15.583 0 10.722 0 6.054 3.284 0 11.88 0Zm-.836 1.449c-3.156 0-6.859 1.674-6.859 8.436 0 5.634 3.22 10.077 8.565 10.077 1.996 0 6.503-.934 6.503-8.726 0-6.052-3.638-9.787-8.209-9.787Z"/></clipPath><clipPath id="hilo-haw-wordmark-c-cp-A"><path d="M7.98 0 4.06 4.396 8.204 9.94H6.51L3.122 5.292 1.568 6.916V9.94H0V.014h1.568v5.18L6.3 0h1.68Z"/></clipPath><clipPath id="hilo-haw-wordmark-c-cp-B"><path d="M3.808 0a3.699 3.699 0 0 1 2.73 1.127c.327.34.576.737.749 1.19a3.953 3.953 0 0 1 .217 1.981H1.638c.028.327.105.62.231.882.126.261.29.488.49.679a2.148 2.148 0 0 0 1.491.595c.205 0 .408-.026.609-.077.2-.051.385-.126.553-.224a1.96 1.96 0 0 0 .448-.357c.13-.14.233-.294.308-.462l1.316.378c-.252.55-.67 1.001-1.253 1.351-.583.35-1.262.525-2.037.525-.57 0-1.087-.1-1.554-.301a3.617 3.617 0 0 1-1.197-.819 3.692 3.692 0 0 1-.77-1.204A3.901 3.901 0 0 1 0 3.808c0-.513.091-1.001.273-1.463.182-.462.439-.868.77-1.218S1.773.502 2.24.301C2.707.101 3.23 0 3.808 0Zm-.014 1.134a2.185 2.185 0 0 0-1.498.581 2.105 2.105 0 0 0-.476.665 2.563 2.563 0 0 0-.224.854H6.02a2.463 2.463 0 0 0-.231-.854 2.2 2.2 0 0 0-.483-.665 2.239 2.239 0 0 0-1.512-.581Z"/></clipPath><clipPath id="hilo-haw-wordmark-c-cp-C"><path d="M7.98 0 4.06 4.396 8.204 9.94H6.51L3.122 5.292 1.568 6.916V9.94H0V.014h1.568v5.18L6.3 0h1.68Z"/></clipPath><clipPath id="hilo-haw-wordmark-c-cp-D"><path d="M1.54 0v4.172c0 1.316.462 1.974 1.386 1.974.448 0 .868-.135 1.26-.406.392-.27.695-.663.91-1.176V0h1.54v5.502c0 .177.033.303.098.378.065.075.182.117.35.126v1.316a4.253 4.253 0 0 1-.756.07c-.579-.047-.905-.313-.98-.798l-.028-.756a3.267 3.267 0 0 1-1.274 1.211 3.667 3.667 0 0 1-1.736.413c-.756 0-1.33-.25-1.722-.749C.196 6.213 0 5.469 0 4.48V0h1.54Z"/></clipPath><clipPath id="hilo-haw-wordmark-c-cp-E"><path d="M1.54 0v8.064c0 .27.07.483.21.637.14.154.336.231.588.231a2.038 2.038 0 0 0 .756-.182l.224 1.246c-.224.103-.49.184-.798.245-.308.06-.583.091-.826.091-.532 0-.947-.145-1.246-.434C.149 9.608 0 9.198 0 8.666V0h1.54Z"/></clipPath><clipPath id="hilo-haw-wordmark-c-cp-F"><path d="M3.374 0c1.008 0 1.792.257 2.352.77.56.513.84 1.25.84 2.212v2.646c0 .177.033.303.098.378.065.075.177.117.336.126v1.316a3.764 3.764 0 0 1-.756.07c-.299-.019-.525-.098-.679-.238a.928.928 0 0 1-.287-.56l-.042-.462c-.327.43-.73.758-1.211.987-.48.229-.996.343-1.547.343-.355 0-.684-.058-.987-.175a2.386 2.386 0 0 1-.784-.483 2.252 2.252 0 0 1-.518-.728A2.192 2.192 0 0 1 0 5.292c0-.345.075-.658.224-.938.15-.28.362-.523.637-.728.275-.205.602-.364.98-.476a4.4 4.4 0 0 1 1.253-.168 5.74 5.74 0 0 1 1.932.336v-.504c0-.541-.154-.964-.462-1.267-.308-.303-.751-.455-1.33-.455-.392 0-.777.072-1.155.217a5.843 5.843 0 0 0-1.169.623L.434.952C1.377.317 2.357 0 3.374 0Zm-.042 3.864c-.55 0-1.001.119-1.351.357-.35.238-.525.553-.525.945 0 .364.135.67.406.917.27.247.616.371 1.036.371.373 0 .726-.068 1.057-.203.331-.135.59-.324.777-.567.196-.168.294-.345.294-.532v-.966a4.655 4.655 0 0 0-.833-.238 4.597 4.597 0 0 0-.861-.084Z"/></clipPath><clipPath id="hilo-haw-wordmark-c-cp-G"><path d="M4.382 0c.439 0 .8.08 1.085.238.285.159.509.376.672.651.163.275.278.593.343.952.065.36.098.74.098 1.141v4.466H5.04V3.346c0-.69-.112-1.192-.336-1.505-.224-.313-.546-.469-.966-.469-.224 0-.45.042-.679.126a2.322 2.322 0 0 0-.637.357 2.78 2.78 0 0 0-.525.546c-.154.21-.273.441-.357.693v4.354H0V.126h1.4v1.47c.28-.495.686-.884 1.218-1.169A3.68 3.68 0 0 1 4.382 0Z"/></clipPath><clipPath id="hilo-haw-wordmark-c-cp-H"><path d="M1.54 0v4.172c0 1.316.462 1.974 1.386 1.974.448 0 .868-.135 1.26-.406.392-.27.695-.663.91-1.176V0h1.54v5.502c0 .177.033.303.098.378.065.075.182.117.35.126v1.316a4.253 4.253 0 0 1-.756.07c-.579-.047-.905-.313-.98-.798l-.028-.756a3.267 3.267 0 0 1-1.274 1.211 3.667 3.667 0 0 1-1.736.413c-.756 0-1.33-.25-1.722-.749C.196 6.213 0 5.469 0 4.48V0h1.54Z"/></clipPath><clipPath id="hilo-haw-wordmark-c-cp-I"><path d="M1.54 2.898v7.322H0V2.898h1.54ZM1.54 0v1.694H0V0h1.54Z"/></clipPath><clipPath id="hilo-haw-wordmark-c-cp-J"><path d="M3.766 0c.57 0 1.085.103 1.547.308.462.205.859.48 1.19.826.331.345.586.749.763 1.211.177.462.266.945.266 1.449 0 .504-.089.987-.266 1.449a3.584 3.584 0 0 1-.763 1.211c-.331.345-.728.62-1.19.826a3.768 3.768 0 0 1-1.547.308 3.804 3.804 0 0 1-1.561-.308 3.644 3.644 0 0 1-1.183-.826 3.64 3.64 0 0 1-.756-1.211A4.009 4.009 0 0 1 0 3.794c0-.504.089-.987.266-1.449.177-.462.432-.866.763-1.211.331-.345.728-.62 1.19-.826A3.768 3.768 0 0 1 3.766 0Zm0 1.316c-.299 0-.581.065-.847.196-.266.13-.497.308-.693.532a2.687 2.687 0 0 0-.644 1.764c0 .355.056.681.168.98.112.299.266.558.462.777.196.22.427.392.693.518.266.126.553.189.861.189.308 0 .595-.063.861-.189s.497-.301.693-.525c.196-.224.35-.485.462-.784a2.77 2.77 0 0 0 .168-.98c0-.345-.056-.67-.168-.973a2.505 2.505 0 0 0-.462-.791 2.115 2.115 0 0 0-.693-.525 1.986 1.986 0 0 0-.861-.189Z"/></clipPath><clipPath id="hilo-haw-wordmark-c-cp-K"><path d="M1.568 0v4.158H6.58V0h1.582v9.94H6.58V5.558H1.568V9.94H0V0h1.568Z"/></clipPath><clipPath id="hilo-haw-wordmark-c-cp-L"><path d="M3.374 0c1.008 0 1.792.257 2.352.77.56.513.84 1.25.84 2.212v2.646c0 .177.033.303.098.378.065.075.177.117.336.126v1.316a3.764 3.764 0 0 1-.756.07c-.299-.019-.525-.098-.679-.238a.928.928 0 0 1-.287-.56l-.042-.462c-.327.43-.73.758-1.211.987-.48.229-.996.343-1.547.343-.355 0-.684-.058-.987-.175a2.386 2.386 0 0 1-.784-.483 2.252 2.252 0 0 1-.518-.728A2.192 2.192 0 0 1 0 5.292c0-.345.075-.658.224-.938.15-.28.362-.523.637-.728.275-.205.602-.364.98-.476a4.4 4.4 0 0 1 1.253-.168 5.74 5.74 0 0 1 1.932.336v-.504c0-.541-.154-.964-.462-1.267-.308-.303-.751-.455-1.33-.455-.392 0-.777.072-1.155.217a5.843 5.843 0 0 0-1.169.623L.434.952C1.377.317 2.357 0 3.374 0Zm-.042 3.864c-.55 0-1.001.119-1.351.357-.35.238-.525.553-.525.945 0 .364.135.67.406.917.27.247.616.371 1.036.371.373 0 .726-.068 1.057-.203.331-.135.59-.324.777-.567.196-.168.294-.345.294-.532v-.966a4.655 4.655 0 0 0-.833-.238 4.597 4.597 0 0 0-.861-.084Z"/></clipPath><clipPath id="hilo-haw-wordmark-c-cp-M"><path d="m1.456 0 2.366 5.838 1.064-2.716L3.612.014h1.26l.84 2.296.84-2.296h1.26l-1.26 3.108 1.064 2.716L9.968 0h1.47L8.344 7.322h-1.26L5.712 3.92 4.354 7.322H3.08L0 0h1.456Z"/></clipPath><clipPath id="hilo-haw-wordmark-c-cp-N"><path d="M3.374 0c1.008 0 1.792.257 2.352.77.56.513.84 1.25.84 2.212v2.646c0 .177.033.303.098.378.065.075.177.117.336.126v1.316a3.764 3.764 0 0 1-.756.07c-.299-.019-.525-.098-.679-.238a.928.928 0 0 1-.287-.56l-.042-.462c-.327.43-.73.758-1.211.987-.48.229-.996.343-1.547.343-.355 0-.684-.058-.987-.175a2.386 2.386 0 0 1-.784-.483 2.252 2.252 0 0 1-.518-.728A2.192 2.192 0 0 1 0 5.292c0-.345.075-.658.224-.938.15-.28.362-.523.637-.728.275-.205.602-.364.98-.476a4.4 4.4 0 0 1 1.253-.168 5.74 5.74 0 0 1 1.932.336v-.504c0-.541-.154-.964-.462-1.267-.308-.303-.751-.455-1.33-.455-.392 0-.777.072-1.155.217a5.843 5.843 0 0 0-1.169.623L.434.952C1.377.317 2.357 0 3.374 0Zm-.042 3.864c-.55 0-1.001.119-1.351.357-.35.238-.525.553-.525.945 0 .364.135.67.406.917.27.247.616.371 1.036.371.373 0 .726-.068 1.057-.203.331-.135.59-.324.777-.567.196-.168.294-.345.294-.532v-.966a4.655 4.655 0 0 0-.833-.238 4.597 4.597 0 0 0-.861-.084Z"/></clipPath><clipPath id="hilo-haw-wordmark-c-cp-O"><path d="M1.54 2.898v7.322H0V2.898h1.54ZM1.54 0v1.694H0V0h1.54Z"/></clipPath><clipPath id="hilo-haw-wordmark-c-cp-P"><path d="M1.914 0v.71c-.47.138-.782.393-.936.767-.087.2-.121.39-.103.567h1.066v1.798H0V2.399C0 1.702.165 1.16.496.77.826.379 1.299.123 1.914 0Z"/></clipPath><clipPath id="hilo-haw-wordmark-c-cp-Q"><path d="M9.002 0c.43 0 .786.082 1.071.245.285.163.511.38.679.651.168.27.287.586.357.945.07.36.105.74.105 1.141v4.466h-1.54V3.346c0-.681-.114-1.18-.343-1.498-.229-.317-.553-.476-.973-.476-.439 0-.84.161-1.204.483-.364.322-.625.74-.784 1.253v4.34H4.83V3.346c0-.69-.11-1.192-.329-1.505-.22-.313-.544-.469-.973-.469-.43 0-.828.159-1.197.476-.369.317-.632.733-.791 1.246v4.354H0V.126h1.4v1.47c.29-.513.67-.908 1.141-1.183S3.551 0 4.158 0C4.774 0 5.255.159 5.6.476c.345.317.565.714.658 1.19.308-.541.695-.954 1.162-1.239A2.977 2.977 0 0 1 9.002 0Z"/></clipPath><clipPath id="hilo-haw-wordmark-c-cp-R"><path d="M3.374 0c1.008 0 1.792.257 2.352.77.56.513.84 1.25.84 2.212v2.646c0 .177.033.303.098.378.065.075.177.117.336.126v1.316a3.764 3.764 0 0 1-.756.07c-.299-.019-.525-.098-.679-.238a.928.928 0 0 1-.287-.56l-.042-.462c-.327.43-.73.758-1.211.987-.48.229-.996.343-1.547.343-.355 0-.684-.058-.987-.175a2.386 2.386 0 0 1-.784-.483 2.252 2.252 0 0 1-.518-.728A2.192 2.192 0 0 1 0 5.292c0-.345.075-.658.224-.938.15-.28.362-.523.637-.728.275-.205.602-.364.98-.476a4.4 4.4 0 0 1 1.253-.168 5.74 5.74 0 0 1 1.932.336v-.504c0-.541-.154-.964-.462-1.267-.308-.303-.751-.455-1.33-.455-.392 0-.777.072-1.155.217a5.843 5.843 0 0 0-1.169.623L.434.952C1.377.317 2.357 0 3.374 0Zm-.042 3.864c-.55 0-1.001.119-1.351.357-.35.238-.525.553-.525.945 0 .364.135.67.406.917.27.247.616.371 1.036.371.373 0 .726-.068 1.057-.203.331-.135.59-.324.777-.567.196-.168.294-.345.294-.532v-.966a4.655 4.655 0 0 0-.833-.238 4.597 4.597 0 0 0-.861-.084Z"/></clipPath><clipPath id="hilo-haw-wordmark-c-cp-S"><path d="M1.568 0v4.158H6.58V0h1.582v9.94H6.58V5.558H1.568V9.94H0V0h1.568Z"/></clipPath><clipPath id="hilo-haw-wordmark-c-cp-T"><path d="M1.54 0v8.064c0 .27.07.483.21.637.14.154.336.231.588.231a2.038 2.038 0 0 0 .756-.182l.224 1.246c-.224.103-.49.184-.798.245-.308.06-.583.091-.826.091-.532 0-.947-.145-1.246-.434C.149 9.608 0 9.198 0 8.666V0h1.54Z"/></clipPath><clipPath id="hilo-haw-wordmark-c-cp-U"><path d="M3.766 0c.57 0 1.085.103 1.547.308.462.205.859.48 1.19.826.331.345.586.749.763 1.211.177.462.266.945.266 1.449 0 .504-.089.987-.266 1.449a3.584 3.584 0 0 1-.763 1.211c-.331.345-.728.62-1.19.826a3.768 3.768 0 0 1-1.547.308 3.804 3.804 0 0 1-1.561-.308 3.644 3.644 0 0 1-1.183-.826 3.64 3.64 0 0 1-.756-1.211A4.009 4.009 0 0 1 0 3.794c0-.504.089-.987.266-1.449.177-.462.432-.866.763-1.211.331-.345.728-.62 1.19-.826A3.768 3.768 0 0 1 3.766 0Zm0 1.316c-.299 0-.581.065-.847.196-.266.13-.497.308-.693.532a2.687 2.687 0 0 0-.644 1.764c0 .355.056.681.168.98.112.299.266.558.462.777.196.22.427.392.693.518.266.126.553.189.861.189.308 0 .595-.063.861-.189s.497-.301.693-.525c.196-.224.35-.485.462-.784a2.77 2.77 0 0 0 .168-.98c0-.345-.056-.67-.168-.973a2.505 2.505 0 0 0-.462-.791 2.115 2.115 0 0 0-.693-.525 1.986 1.986 0 0 0-.861-.189Z"/></clipPath></defs><g clip-path="url(#hilo-haw-wordmark-c-cp-a)"><g clip-path="url(#hilo-haw-wordmark-c-cp-b)" transform="translate(52.654 21.994)"><path fill="#D52B1D" d="M0 0h102.149v1.073H0V0z"/></g><g clip-path="url(#hilo-haw-wordmark-c-cp-c)" transform="translate(.549 1.174)"><path fill="#1B1A19" d="M0 0h13.138v13.488H0V0z"/></g><g clip-path="url(#hilo-haw-wordmark-c-cp-d)" transform="translate(14.634 2.944)"><path fill="#1B1A19" d="M0 0h12.402v11.578H0V0z"/></g><g clip-path="url(#hilo-haw-wordmark-c-cp-e)" transform="translate(29.507 3.153)"><path fill="#1B1A19" d="M0 0h3.976v11.264H0V0z"/></g><g clip-path="url(#hilo-haw-wordmark-c-cp-f)" transform="translate(34.902 3.153)"><path fill="#1B1A19" d="M0 0h12.279v11.456H0V0z"/></g><g clip-path="url(#hilo-haw-wordmark-c-cp-g)" transform="translate(48.53 3.031)"><path fill="#1B1A19" d="M0 0h7.06v11.421H0V0z"/></g><g clip-path="url(#hilo-haw-wordmark-c-cp-h)" transform="translate(57.587 3.153)"><path fill="#1B1A19" d="M0 0h11.667v11.264H0V0z"/></g><g clip-path="url(#hilo-haw-wordmark-c-cp-i)" transform="translate(69.588 2.926)"><path fill="#1B1A19" d="M0 0h6.359v11.683H0V0z"/></g><g clip-path="url(#hilo-haw-wordmark-c-cp-j)" transform="translate(78.347 3.153)"><path fill="#1B1A19" d="M0 0h3.976v11.264H0V0z"/></g><g clip-path="url(#hilo-haw-wordmark-c-cp-k)" transform="translate(84.075 2.944)"><path fill="#1B1A19" d="M0 0h9.81v11.473H0V0z"/></g><g clip-path="url(#hilo-haw-wordmark-c-cp-l)" transform="translate(95.251 3.153)"><path fill="#1B1A19" d="M0 0h11.158v11.264H0V0z"/></g><g clip-path="url(#hilo-haw-wordmark-c-cp-m)" transform="translate(112.138 5.827)"><path fill="#1B1A19" d="M0 0h8.357v8.883H0V0z"/></g><g clip-path="url(#hilo-haw-wordmark-c-cp-n)" transform="translate(121.162 .771)"><path fill="#1B1A19" d="M0 0h7.18v17.219H0V0z"/></g><g clip-path="url(#hilo-haw-wordmark-c-cp-o)" transform="translate(135.507 1.174)"><path fill="#1B1A19" d="M0 0h13.803v13.243H0V0z"/></g><g clip-path="url(#hilo-haw-wordmark-c-cp-p)" transform="translate(150.468 2.873)"><path fill="#1B1A19" d="M0 0h12.07v11.544H0V0z"/></g><g clip-path="url(#hilo-haw-wordmark-c-cp-q)" transform="translate(161.4 3.153)"><path fill="#1B1A19" d="M0 0h17.359v11.456H0V0z"/></g><g clip-path="url(#hilo-haw-wordmark-c-cp-r)" transform="translate(177.5 2.873)"><path fill="#1B1A19" d="M0 0h12.069v11.544H0V0z"/></g><g clip-path="url(#hilo-haw-wordmark-c-cp-s)" transform="translate(190.988 3.153)"><path fill="#1B1A19" d="M0 0h3.977v11.264H0V0z"/></g><g clip-path="url(#hilo-haw-wordmark-c-cp-t)" transform="translate(197.469)"><path fill="#1B1A19" d="M0 0h1.823v4.362H0V0z"/></g><g clip-path="url(#hilo-haw-wordmark-c-cp-u)" transform="translate(202.165 3.153)"><path fill="#1B1A19" d="M0 0h3.975v11.264H0V0z"/></g><g clip-path="url(#hilo-haw-wordmark-c-cp-v)" transform="translate(208.9 2.803)"><path fill="#1B1A19" d="M0 0h3.552v3.624H0V0z"/></g><g clip-path="url(#hilo-haw-wordmark-c-cp-w)" transform="translate(64.847 28.234)"><path fill="#1B1A19" d="M0 0h27.56v24.34H0V0z"/></g><g clip-path="url(#hilo-haw-wordmark-c-cp-x)" transform="translate(93.183 31.872)"><path fill="#1B1A19" d="M0 0h9.433v20.702H0V0z"/></g><g clip-path="url(#hilo-haw-wordmark-c-cp-y)" transform="translate(104.487 31.872)"><path fill="#1B1A19" d="M0 0h15.453v20.766H0V0z"/></g><g clip-path="url(#hilo-haw-wordmark-c-cp-z)" transform="translate(120.297 31.485)"><path fill="#1B1A19" d="M0 0h23.47v21.443H0V0z"/></g><g clip-path="url(#hilo-haw-wordmark-c-cp-A)" transform="translate(12.66 68.42)"><path fill="#1B1A19" d="M0 0h8.204v9.94H0V0z"/></g><g clip-path="url(#hilo-haw-wordmark-c-cp-B)" transform="translate(21.238 70.912)"><path fill="#1B1A19" d="M0 0h7.546v7.588H0V0z"/></g><g clip-path="url(#hilo-haw-wordmark-c-cp-C)" transform="translate(33.748 68.42)"><path fill="#1B1A19" d="M0 0h8.204v9.94H0V0z"/></g><g clip-path="url(#hilo-haw-wordmark-c-cp-D)" transform="translate(42.495 71.038)"><path fill="#1B1A19" d="M0 0h7.084v7.462H0V0z"/></g><g clip-path="url(#hilo-haw-wordmark-c-cp-E)" transform="translate(51.172 68.14)"><path fill="#1B1A19" d="M0 0h3.318v10.332H0V0z"/></g><g clip-path="url(#hilo-haw-wordmark-c-cp-F)" transform="translate(54.865 70.912)"><path fill="#1B1A19" d="M0 0h7v7.588H0V0z"/></g><g clip-path="url(#hilo-haw-wordmark-c-cp-G)" transform="translate(63.345 70.912)"><path fill="#1B1A19" d="M0 0h6.58v7.448H0V0z"/></g><g clip-path="url(#hilo-haw-wordmark-c-cp-H)" transform="translate(71.644 71.038)"><path fill="#1B1A19" d="M0 0h7.084v7.462H0V0z"/></g><g clip-path="url(#hilo-haw-wordmark-c-cp-I)" transform="translate(80.307 68.14)"><path fill="#1B1A19" d="M0 0h1.54v10.22H0V0z"/></g><g clip-path="url(#hilo-haw-wordmark-c-cp-J)" transform="translate(86.713 70.912)"><path fill="#1B1A19" d="M0 0h7.532v7.588H0V0z"/></g><g clip-path="url(#hilo-haw-wordmark-c-cp-K)" transform="translate(99.307 68.42)"><path fill="#1B1A19" d="M0 0h8.162v9.94H0V0z"/></g><g clip-path="url(#hilo-haw-wordmark-c-cp-L)" transform="translate(109.02 70.912)"><path fill="#1B1A19" d="M0 0h7v7.588H0V0z"/></g><g clip-path="url(#hilo-haw-wordmark-c-cp-M)" transform="translate(116.409 71.038)"><path fill="#1B1A19" d="M0 0h11.438v7.322H0V0z"/></g><g clip-path="url(#hilo-haw-wordmark-c-cp-N)" transform="translate(128.193 70.912)"><path fill="#1B1A19" d="M0 0h7v7.588H0V0z"/></g><g clip-path="url(#hilo-haw-wordmark-c-cp-O)" transform="translate(136.674 68.14)"><path fill="#1B1A19" d="M0 0h1.54v10.22H0V0z"/></g><g clip-path="url(#hilo-haw-wordmark-c-cp-P)" transform="translate(140.1 68.188)"><path fill="#1B1A19" d="M0 0h1.941v3.842H0V0z"/></g><g clip-path="url(#hilo-haw-wordmark-c-cp-O)" transform="translate(143.988 68.14)"><path fill="#1B1A19" d="M0 0h1.54v10.22H0V0z"/></g><g clip-path="url(#hilo-haw-wordmark-c-cp-Q)" transform="translate(150.841 70.912)"><path fill="#1B1A19" d="M0 0h11.214v7.448H0V0z"/></g><g clip-path="url(#hilo-haw-wordmark-c-cp-R)" transform="translate(163.312 70.912)"><path fill="#1B1A19" d="M0 0h7v7.588H0V0z"/></g><g clip-path="url(#hilo-haw-wordmark-c-cp-S)" transform="translate(175.486 68.42)"><path fill="#1B1A19" d="M0 0h8.162v9.94H0V0z"/></g><g clip-path="url(#hilo-haw-wordmark-c-cp-O)" transform="translate(185.703 68.14)"><path fill="#1B1A19" d="M0 0h1.54v10.22H0V0z"/></g><g clip-path="url(#hilo-haw-wordmark-c-cp-T)" transform="translate(189.102 68.14)"><path fill="#1B1A19" d="M0 0h3.318v10.332H0V0z"/></g><g clip-path="url(#hilo-haw-wordmark-c-cp-U)" transform="translate(192.809 70.912)"><path fill="#1B1A19" d="M0 0h7.532v7.588H0V0z"/></g></g></svg>